PathFileType	4	(X/Y/Z)	C:\Users\Basilio\Documents\Thesis Gigler\squatting_fais\c3dfiles\047\SLS_pre_front2\markers_experimental.trc
DataRate	CameraRate	NumFrames	NumMarkers	Units	OrigDataRate	OrigDataStartFrame	OrigNumFrames
200.000000	200.000000	4	60	mm	200.000000	157	1258
Frame#	Time	FHD			LBHD			RBHD			C7			T10			CLAV			LSHO			LUUPA			LMUPA			LDUPA			LLEP			LMEP			LRAD			LUL			LRFIN			RSHO			RUPA1			RMUPA			RDUPA			RLEP			RMEP			RRAD			RUL			RUFIN			LASI			RASI			USACR			LSACR			RSACR			LTHI1			LTHI2			LTHI3			LTHI4			LLFC			LMFC			LTIB1			LTIB2			LTIB3			LTIB4			LLMAL			LMMAL			LMT1			LMT2			LMT5			RTHI			RTHI2			RTHI3			RTHI4			RLFC			RMFC			RTIB1			RTIB2			RTIB3			RTIB4			RLMAL			RMMAL			RHEE			RMT1			RMT2			RMT5			
		X1	Y1	Z1	X2	Y2	Z2	X3	Y3	Z3	X4	Y4	Z4	X5	Y5	Z5	X6	Y6	Z6	X7	Y7	Z7	X8	Y8	Z8	X9	Y9	Z9	X10	Y10	Z10	X11	Y11	Z11	X12	Y12	Z12	X13	Y13	Z13	X14	Y14	Z14	X15	Y15	Z15	X16	Y16	Z16	X17	Y17	Z17	X18	Y18	Z18	X19	Y19	Z19	X20	Y20	Z20	X21	Y21	Z21	X22	Y22	Z22	X23	Y23	Z23	X24	Y24	Z24	X25	Y25	Z25	X26	Y26	Z26	X27	Y27	Z27	X28	Y28	Z28	X29	Y29	Z29	X30	Y30	Z30	X31	Y31	Z31	X32	Y32	Z32	X33	Y33	Z33	X34	Y34	Z34	X35	Y35	Z35	X36	Y36	Z36	X37	Y37	Z37	X38	Y38	Z38	X39	Y39	Z39	X40	Y40	Z40	X41	Y41	Z41	X42	Y42	Z42	X43	Y43	Z43	X44	Y44	Z44	X45	Y45	Z45	X46	Y46	Z46	X47	Y47	Z47	X48	Y48	Z48	X49	Y49	Z49	X50	Y50	Z50	X51	Y51	Z51	X52	Y52	Z52	X53	Y53	Z53	X54	Y54	Z54	X55	Y55	Z55	X56	Y56	Z56	X57	Y57	Z57	X58	Y58	Z58	X59	Y59	Z59	X60	Y60	Z60	

158	0.785	-243.0769500732422	1726.148803710938	-1055.056762695313	-420.9936523437501	1699.6826171875	-1091.148315429688	-405.8383178710939	1702.324584960938	-943.7303466796877	-451.9965820312501	1512.177856445313	-1021.607299804688	-433.2583618164064	1195.179443359375	-1013.843322753906	-289.4888000488282	1481.31298828125	-1038.66796875	-368.7975769042969	1510.216918945313	-1184.89794921875	-260.1050109863282	1455.8427734375	-1306.36474609375	-238.1649017333985	1499.376342773438	-1295.146728515625	-195.1701049804688	1471.366943359375	-1325.289428710938	-135.8385772705078	1499.12890625	-1337.198364257813	-104.9700698852539	1439.86376953125	-1292.120483398438	131.1266479492188	1537.919311523438	-1310.660400390625	116.8310699462891	1551.704223632813	-1385.991088867188	211.6016540527344	1567.519653320313	-1335.57275390625	-348.7087707519532	1518.89990234375	-890.8007812500002	-210.5191802978516	1463.244506835938	-785.1524047851565	-187.0127258300782	1501.099975585938	-806.0441894531252	-140.9449920654297	1467.591186523438	-785.3015136718752	-75.12236785888673	1487.58935546875	-794.5802001953127	-62.10973358154298	1424.464965820313	-845.6629028320315	185.1277160644532	1512.192138671875	-868.4825439453127	179.5632629394532	1523.459838867188	-793.9500732421877	265.0081481933594	1535.816650390625	-855.5290527343752	-230.4363250732422	993.0874633789065	-1110.354858398438	-227.8756561279297	1020.741516113281	-881.777282714844	-422.3465881347657	1059.117309570313	-1004.239196777344	-421.3140869140626	1025.33251953125	-1029.66796875	-424.037811279297	1029.906005859375	-971.495056152344	-306.3600158691407	825.2820434570315	-1168.510375976563	-265.7509765625001	751.4285278320314	-1166.58642578125	-217.7120361328126	759.8005371093751	-1157.964599609375	-290.0962829589844	695.7640380859376	-1157.75927734375	-302.2406005859376	523.4384765625001	-1115.851684570313	-265.8325500488282	519.2791748046876	-999.378845214844	-272.4176940917969	340.5160217285157	-1016.383361816406	-282.6435546875001	291.2537231445313	-1087.938842773438	-266.2893676757813	290.1549072265626	-1043.16064453125	-282.4385375976563	214.9789428710938	-1008.797790527344	-335.5060424804688	118.1047897338867	-1049.252685546875	-312.8220520019532	135.8824615478516	-964.1341552734377	-192.0146484375001	63.19865036010744	-978.4768676757815	-189.3863220214844	60.04774093627931	-1023.174682617188	-237.5746765136719	44.8795509338379	-1068.74853515625	-209.2523498535157	865.5227661132815	-779.8264770507815	-142.4358978271485	861.3990478515627	-785.784362792969	-124.6108856201172	885.8839111328127	-797.384460449219	-97.36298370361331	790.2964477539065	-789.7235107421877	18.5606918334961	702.5416870117189	-812.5189208984377	32.11866760253907	703.8486328125001	-936.7461547851565	122.8058853149414	622.0231933593751	-833.657653808594	124.2064971923828	521.7769165039064	-787.1218872070315	157.9904479980469	545.6812133789064	-809.2200927734377	189.9116668701172	510.3694763183595	-842.7841796875002	227.1861114501954	354.8668518066407	-804.860046386719	232.9453582763672	373.1454467773438	-894.5438232421877	188.3721771240235	294.8665161132813	-848.7739868164065	381.5957946777344	367.6083374023438	-892.9295654296877	386.3734436035157	379.0990295410157	-849.4503173828127	361.2984619140626	340.1386108398438	-787.9973754882815	
159	0.79	-243.1752166748047	1726.029296875	-1055.247436523438	-421.0672302246095	1699.608764648438	-1091.341552734375	-405.8553161621095	1702.423095703125	-943.9755859375002	-451.9797363281251	1512.159423828125	-1021.687072753906	-433.258758544922	1195.265991210938	-1013.869689941406	-289.4981384277344	1481.4794921875	-1038.858642578125	-368.9320983886719	1510.518188476563	-1185.068237304688	-260.1168823242188	1455.794311523438	-1306.448364257813	-238.1658325195313	1499.394653320313	-1295.2958984375	-195.2261505126954	1471.411865234375	-1325.345947265625	-135.7940521240235	1499.15185546875	-1337.226440429688	-104.7643051147461	1440.0498046875	-1292.268432617188	131.08642578125	1537.979858398438	-1310.673583984375	116.7541427612305	1551.795043945313	-1386.025390625	211.3153533935547	1567.5263671875	-1335.44873046875	-348.5805664062501	1519.007934570313	-890.9135742187502	-210.5052947998047	1463.44091796875	-785.3100585937502	-187.0543823242188	1501.2421875	-805.9859619140627	-140.9392700195313	1467.641357421875	-785.4769287109377	-74.99549865722658	1487.789672851563	-794.614440917969	-62.03983688354494	1424.526123046875	-845.6653442382815	185.3201293945313	1512.48046875	-868.5479125976565	179.609130859375	1523.746826171875	-793.8189697265627	265.2615356445313	1536.17919921875	-855.8155517578127	-230.445297241211	993.0696411132815	-1110.483032226563	-227.8439636230469	1020.784973144531	-881.8154296875002	-422.3417358398439	1059.085815429688	-1004.299072265625	-419.9298400878907	1025.0380859375	-1030.106323242188	-424.1759338378907	1029.918579101563	-971.4940185546877	-306.4413452148438	825.262390136719	-1168.500854492188	-265.8255920410157	751.3917236328126	-1166.611938476563	-217.8636779785157	759.7542724609376	-1157.96533203125	-290.1956176757813	695.7868041992189	-1157.776123046875	-302.4039306640626	523.4226684570314	-1115.863037109375	-265.8861999511719	519.2874755859376	-999.432312011719	-272.4457702636719	340.5220336914063	-1016.338317871094	-282.7612609863282	291.2781677246094	-1088.0576171875	-266.3222656250001	290.1253356933594	-1043.313720703125	-282.4833374023438	214.9845275878907	-1008.81298828125	-335.7015380859376	118.0506439208985	-1049.243896484375	-312.8439636230469	135.9087677001953	-964.2167968750002	-191.9234008789063	63.26657104492189	-978.5339355468752	-189.3068542480469	60.03447723388673	-1023.163208007813	-237.6155242919922	44.77288818359376	-1068.687866210938	-209.2039489746094	865.653991699219	-779.6942138671877	-142.3214111328125	861.4163818359377	-785.8159179687502	-124.4279861450196	885.9353637695315	-797.5163574218752	-97.33854675292972	790.333190917969	-789.8885498046877	18.63680648803711	702.6197509765626	-812.5366821289065	32.32051467895509	703.9329833984376	-936.8914184570315	122.9157180786133	622.0463867187501	-833.6814575195315	124.302474975586	521.8808593750001	-787.2261962890627	158.219711303711	545.8831176757814	-809.4993896484377	189.9677429199219	510.4712219238282	-842.8863525390627	227.4830169677735	354.9209289550782	-804.9970703125002	233.0569763183594	373.1962585449219	-894.6260986328127	188.5111541748047	294.9591064453126	-848.8045654296877	381.6787109375001	367.7229919433594	-893.0786743164065	386.4898376464845	379.2210083007813	-849.6521606445315	361.3685302734376	340.1780700683594	-787.9897460937502	
160	0.795	-243.1865386962891	1726.230590820313	-1055.572021484375	-421.1619567871095	1699.635620117188	-1091.529174804688	-405.9791259765626	1702.476318359375	-944.0705566406252	-451.9679260253907	1512.1416015625	-1021.763854980469	-433.3675537109376	1195.29248046875	-1013.903686523438	-289.4986572265626	1481.39794921875	-1038.936401367188	-368.9393310546876	1510.211181640625	-1185.060180664063	-260.3523254394532	1455.805541992188	-1306.510620117188	-238.1665649414063	1499.363037109375	-1295.36669921875	-195.2954711914063	1471.305541992188	-1325.435913085938	-135.7842102050782	1499.135498046875	-1337.30859375	-104.9916000366211	1439.942016601563	-1292.240966796875	130.9546966552735	1537.96728515625	-1310.777465820313	116.7776947021485	1551.736206054688	-1386.090942382813	210.6110382080079	1567.30517578125	-1334.812255859375	-348.5711059570313	1519.054443359375	-891.0401611328127	-210.4359130859376	1463.564453125	-785.3214111328127	-186.9913177490235	1501.43994140625	-806.073425292969	-140.8269653320313	1467.863891601563	-785.5778808593752	-74.9951858520508	1487.873657226563	-794.6973876953127	-62.03176879882814	1424.596435546875	-845.5623779296877	185.3932647705078	1512.774291992188	-868.557312011719	179.6822662353516	1523.978515625	-793.9287109375002	265.0333862304688	1536.478393554688	-855.519226074219	-230.3982696533204	992.9990844726565	-1110.523559570313	-227.6784973144532	1020.851623535156	-882.068542480469	-422.337127685547	1059.087646484375	-1004.328308105469	-419.9128417968751	1025.0068359375	-1030.171875	-424.0884704589845	1029.907348632813	-971.5424804687502	-306.5710449218751	825.297546386719	-1168.525634765625	-265.9309997558594	751.4407348632814	-1166.623291015625	-217.8729553222657	759.8190307617189	-1158.01904296875	-290.3640136718751	695.8543090820314	-1157.792114257813	-302.5239257812501	523.4323730468751	-1115.92236328125	-265.8836364746094	519.3015747070314	-999.4600830078127	-272.3754882812501	340.6365661621094	-1016.64794921875	-283.1277770996094	291.0982055664063	-1088.113037109375	-266.3875427246094	290.0887145996094	-1043.455078125	-282.4539794921876	215.0216369628907	-1009.144104003906	-335.7369079589844	118.0171203613282	-1049.241821289063	-312.8081054687501	135.9407501220703	-964.3037719726565	-191.9586486816407	63.270565032959	-978.5517578125002	-189.4566650390625	59.96656799316408	-1023.268859863281	-237.5719909667969	44.79640579223634	-1068.838500976563	-209.1075134277344	865.6851196289065	-779.9669189453127	-142.246566772461	861.5125122070315	-785.9719238281252	-124.1613311767578	886.1239013671877	-797.7592773437502	-97.20356750488284	790.3291015625002	-789.8620605468752	18.73839950561524	702.7080078125001	-812.6387329101565	32.41365814208985	703.9777832031251	-936.7913208007815	123.0313034057617	622.1259765625001	-833.6809082031252	124.6037292480469	521.9953613281251	-787.396667480469	158.2871856689453	545.9227294921876	-809.5501098632815	190.1853179931641	510.5618591308595	-842.9572753906252	227.6370391845704	355.0953979492188	-805.0170898437502	233.1679229736329	373.3027954101563	-894.707946777344	188.6291961669922	295.1883239746094	-848.8457641601565	381.6567687988282	367.7849426269532	-893.2171020507815	386.5310363769532	379.2635803222657	-849.7698364257815	361.4123840332032	340.2245788574219	-787.9519042968752	
161	0.8	-243.2373657226563	1726.222045898438	-1056.052856445313	-421.2640991210939	1699.598510742188	-1091.677734375	-406.0952758789064	1702.554077148438	-944.2583618164065	-452.042449951172	1512.239135742188	-1021.823547363281	-433.2046508789064	1195.25390625	-1013.938598632813	-289.5220336914063	1481.609741210938	-1039.0556640625	-368.9909667968751	1510.522583007813	-1185.255249023438	-260.4072265625001	1455.792602539063	-1306.576049804688	-238.3244171142579	1499.359741210938	-1295.458374023438	-195.3245849609376	1471.281616210938	-1325.5458984375	-135.875473022461	1499.13037109375	-1337.389892578125	-104.8824920654297	1440.005249023438	-1292.375	130.9265747070313	1537.9208984375	-1310.875	116.7456130981446	1551.8388671875	-1386.135620117188	211.1730346679688	1567.519165039063	-1335.401611328125	-348.5721130371094	1519.087646484375	-891.129089355469	-210.2690582275391	1463.765869140625	-785.518005371094	-186.8407897949219	1501.609252929688	-806.241882324219	-140.7207183837891	1467.963745117188	-785.7520751953127	-75.01197052001955	1487.967651367188	-794.763122558594	-61.97766876220705	1424.722778320313	-845.6104736328127	185.5206909179688	1513.071411132813	-868.5713500976565	179.6820831298828	1524.236328125	-793.942565917969	265.0977172851563	1536.809814453125	-855.6188964843752	-230.4325408935547	993.0290527343752	-1110.505249023438	-227.6447448730469	1020.96826171875	-882.174743652344	-422.2615051269532	1059.069213867188	-1004.374084472656	-419.8771972656251	1024.99267578125	-1030.207763671875	-424.0779113769532	1029.90185546875	-971.5798339843752	-306.6080017089844	825.359069824219	-1168.547973632813	-265.9876708984376	751.5286254882814	-1166.65625	-218.0896759033204	759.8037719726564	-1157.948364257813	-290.4393920898438	695.8510742187501	-1157.84130859375	-302.7073059082032	523.4715576171876	-1116.000122070313	-265.9287414550782	519.3128662109376	-999.5443115234377	-272.3324584960938	340.6312561035157	-1016.769348144531	-283.3178710937501	291.0997924804688	-1088.295166015625	-266.1736450195313	289.8869018554688	-1043.878540039063	-282.4524841308594	214.7644805908204	-1009.4140625	-335.7305908203126	117.9990844726563	-1049.33056640625	-312.7899475097657	135.97998046875	-964.4339599609377	-191.9350738525391	63.41247558593751	-978.6239013671877	-189.4801483154297	59.87621688842775	-1023.245056152344	-237.5970153808594	44.68157196044923	-1068.859252929688	-209.0872344970704	865.7238769531252	-780.0173950195315	-142.0977630615235	861.6416015625002	-786.122253417969	-124.1112442016602	886.2415771484377	-797.8066406250002	-97.01999664306643	790.5464477539065	-789.8763427734377	18.85499382019043	702.8068237304689	-812.7217407226565	32.35081100463868	704.0061645507814	-936.8674316406252	123.2171325683594	622.2261352539064	-833.934753417969	124.8386688232422	522.1409912109376	-787.4704589843752	158.3221893310547	545.9988403320314	-809.6362304687502	190.33935546875	510.6682739257814	-843.1047973632815	227.6866607666016	355.2111511230469	-805.0252075195315	233.1649780273438	373.3098754882813	-894.7078247070315	188.6430053710938	295.2138366699219	-848.8599243164065	381.8153076171876	367.8704833984376	-893.4218750000002	386.672576904297	379.2562561035157	-849.9385375976565	361.4526367187501	340.2514648437501	-788.0596923828127	
